<svg xmlns="http://www.w3.org/2000/svg" xmlns:xlink="http://www.w3.org/1999/xlink" width="24" height="24" viewBox="0 0 24 24">
    <path  transform="translate(4 4)" d="M.967 1.144l.083-.094c.36-.36.928-.388 1.32-.083l.094.083L8 6.585l5.537-5.535c.39-.39 1.023-.39 1.414 0 .39.39.39 1.024 0 1.414L9.414 8l5.536 5.537c.36.36.388.927.083 1.32l-.083.094c-.36.36-.928.388-1.32.083l-.094-.083-5.537-5.536-5.535 5.536c-.39.39-1.023.39-1.414 0-.39-.39-.39-1.024 0-1.414l5.535-5.537L1.05 2.464c-.36-.36-.388-.927-.083-1.32l.083-.094-.083.094z"/>
</svg>
